<?xml version="1.0" standalone="no"?>
<!DOCTYPE svg PUBLIC "-//W3C//DTD SVG 20010904//EN"
 "http://www.w3.org/TR/2001/REC-SVG-20010904/DTD/svg10.dtd">
<svg version="1.0" xmlns="http://www.w3.org/2000/svg"
 width="512.000000pt" height="512.000000pt" viewBox="0 0 512.000000 512.000000"
 preserveAspectRatio="xMidYMid meet">
<metadata>
Created by potrace 1.14, written by Peter Selinger 2001-2017
</metadata>
<g transform="translate(0.000000,512.000000) scale(0.100000,-0.100000)"
fill="#000000" stroke="none">
<path d="M3140 5067 c-3 -3 -30 -7 -60 -10 -143 -16 -319 -82 -450 -170 -68
-45 -101 -69 -117 -82 -26 -23 -1400 -1396 -1464 -1464 -39 -40 -78 -85 -87
-100 -9 -14 -19 -28 -22 -31 -12 -10 -78 -126 -103 -180 -24 -51 -61 -164 -71
-214 -3 -11 -10 -46 -16 -76 -17 -87 -15 -289 4 -385 31 -152 88 -298 160
-404 20 -29 36 -55 36 -58 0 -29 1526 -1552 1630 -1627 134 -97 292 -165 475
-202 66 -14 301 -13 380 1 512 92 892 497 942 1005 27 265 -40 529 -189 754
l-40 60 46 86 c45 86 102 243 112 310 3 19 8 43 11 53 2 10 6 71 8 135 7 246
-54 465 -185 663 l-37 56 29 34 c16 19 33 40 39 47 15 18 91 151 111 192 100
213 129 506 71 735 -18 73 -52 176 -62 190 -4 6 -14 26 -21 45 -43 111 -211
318 -337 412 -136 103 -319 181 -492 211 -79 14 -291 23 -301 14z m292 -353
c299 -71 538 -316 604 -619 14 -64 13 -250 -1 -317 -19 -94 -68 -210 -121
-290 l-45 -68 -45 31 c-95 65 -250 131 -374 160 -25 6 -54 13 -65 16 -51 13
-313 11 -390 -3 -178 -34 -364 -113 -479 -204 -142 -112 -806 -778 -878 -880
-118 -168 -200 -397 -210 -587 -2 -29 -6 -53 -9 -53 -6 0 -49 33 -97 75 -50
44 -130 154 -169 235 -61 126 -78 202 -78 350 0 135 17 223 61 316 13 28 24
54 24 58 0 4 5 12 10 19 6 7 25 35 42 62 38 60 1497 1525 1566 1572 112 76
241 127 357 140 28 3 51 7 53 8 10 9 182 -6 244 -21z m-42 -1433 c204 -52 385
-186 488 -360 45 -76 96 -214 108 -291 11 -76 6 -222 -10 -295 -16 -67 -52
-172 -66 -188 -3 -4 -141 128 -306 293 -164 166 -310 307 -324 313 -14 7 -35
11 -47 9 -13 -2 -191 -172 -432 -412 -433 -432 -494 -483 -629 -533 -59 -22
-102 -34 -192 -53 -29 -6 -156 -6 -185 0 -11 3 -24 5 -28 5 -12 1 -6 193 8
264 25 121 72 225 148 327 44 59 693 712 767 772 189 153 462 211 700 149z
m85 -1185 l223 -223 -311 -310 c-172 -170 -334 -325 -362 -345 -141 -100 -300
-147 -481 -143 -60 2 -118 5 -129 8 -11 3 -42 10 -70 17 -124 28 -286 131
-418 267 l-59 60 44 -1 c140 -2 334 49 490 130 131 67 204 130 523 446 176
175 321 318 323 318 2 0 104 -101 227 -224z m473 -517 c26 -46 72 -161 78
-199 3 -14 9 -40 14 -58 5 -19 7 -89 6 -155 -5 -172 -41 -289 -130 -422 -115
-172 -303 -303 -487 -340 -13 -3 -37 -8 -54 -11 -60 -12 -192 -10 -265 3 -92
17 -83 14 -154 41 -113 43 -187 94 -308 211 -73 70 -95 100 -65 88 25 -10 230
24 320 53 259 83 315 128 885 703 69 70 128 127 132 127 3 0 15 -18 28 -41z"/>
</g>
</svg>
